
<svg style="height: 512px; width: 512px;" xmlns="http://www.w3.org/2000/svg" viewBox="0 0 512 512">
<path d="M0 0h512v512H0z" fill="#f5a623" fill-opacity="1">
</path>
<g class="" style="" transform="translate(0,0)">
<path d="M210.22 102.094l-32 14.406 16.874 55.656-177.813 80.03 12.564 27.876L207.656 200l30.406 49.47 49.313-22.19-21.344-70.343-55.81-54.843" fill="#fff" fill-opacity="1"></path>
<path d="M197.593 266.78v20.345h-88.906c15.994 38.807 51.225 65.43 88.906 74.28v32.97h58.562c-12.118 30.528-33.505 55.684-58.47 77.594H172.22v18.686H456.56V471.97h-27.406c-28.734-21.895-50.055-47.018-61.625-77.595h63.658v-29.188c19.748-6.995 39.5-19.51 59.25-36.687-19.812-17.523-39.23-27.25-59.25-31.938v-29.78H197.594z" fill="#fff" fill-opacity="1"></path>
</g>
<g class="" style="" transform="translate(570 0) scale(-.55 .5) ">
<path d="M177.438 17.625c-36.363 63.13-6.562 132.455 51.593 167.906 73.338 44.71 85.25 182.336 197.44 180.032 18.768 37.002 32.436 74.428 42 113.844L486.624 475c-7.386-30.444-17.18-59.834-29.75-88.72 19.49-32.138 28.49-64.438 35.938-96.75L477.5 306.657c1.212-13.487.876-26.89-.688-41l-13.625 26.938c2.42-20.608 3.05-39.98 3.875-59.5l-19.53 33.97c-2.876-17.033-6.577-33.074-10.188-49.252l-8.25 30.97C371.358 118 210.67 101.476 177.438 17.624" fill="#fff" fill-opacity="1"></path>
</g>
</svg>