<svg style="height: 512px; width: 512px;" xmlns="http://www.w3.org/2000/svg" viewBox="0 0 512 512">
<path d="M0 0h512v512H0z" fill="#9c479a" fill-opacity="1"></path>
<g class="" style="" transform="translate(0,0)">
<path d="M105.063 18.03c71.2 31.42 129.344 86.117 152.5 155.75 23.155-69.633 78.953-124.33 150.03-155.75h-36.156c-53.802 15.416-89.834 45.46-107.25 92 2.238-52.074 18.275-78.34 40.25-92H203.094c21.98 13.66 38.044 39.926 40.28 92-17.415-46.54-53.446-76.584-107.25-92h-31.06zm386.968 4.157c-16.65 228.426-81.874 410.467-209.06 398.907 41.547 39.438 83.78 62.385 122.342 72.22l86.72-.002v-32.968c-27.303 13.718-52.895 14.545-130.938-13.438 68.627.614 101.042-14.37 130.937-51.656v-46.063c-20.77 32.913-58.994 60.416-130.936 75.438 64.71-34.947 107.585-89.884 130.937-180.844V22.188zM18.69 71.344V255.47c23.96 84.017 65.86 135.732 127.75 169.155-68.45-14.292-106.347-39.89-127.75-70.688v45.125c29.053 34.484 61.523 48.437 127.75 47.844-75.03 26.903-101.557 27.177-127.75 14.97v31.437h82.28c38.562-9.834 80.796-32.78 122.344-72.22-117.915 10.718-182.556-144.97-204.625-349.75" fill="#fff" fill-opacity="1"></path></g>
<g class="" style="" transform="translate(75 140) scale(.7 .7)">
<path d="M253.12 66.45c-86.344-.825-168.94 54.43-231.636 157.583 142.248 147.99 316.073 144.962 471.508 0-74.337-106.54-158.758-156.806-239.87-157.582zm11.734 21.282c57.37 3.81 102.726 51.543 102.726 109.877 0 60.822-49.306 110.126-110.13 110.126-60.82 0-110.126-49.304-110.126-110.127 0-39.058 20.334-73.364 50.99-92.917l39.778 64.233-60.69 6.746 124.23 109.066-44.343-89.78 60.33-7.673-52.766-99.553" fill="#fff" fill-opacity="1">
</path>
</g>
</svg>