<svg style="height: 512px; width: 512px;" xmlns="http://www.w3.org/2000/svg" viewBox="0 0 512 512"><defs><linearGradient x1="0" x2="0" y1="0" y2="1" id="lorc-beech-gradient-0"><stop offset="0%" stop-color="#000" stop-opacity="1"></stop><stop offset="100%" stop-color="#417505" stop-opacity="1"></stop></linearGradient></defs><path d="M0 0h512v512H0z" fill="url(#lorc-beech-gradient-0)"></path><g class="" style="" transform="translate(90,-10) scale(.7 .7)"><path d="M222.156 20.72c-1.423.01-2.843.065-4.25.155-20.084 1.29-37.527 10.342-46.375 27.03l17.626 12.532h-29.312c-10.333-5.256.412-.266-11.375-5.28-23.158-13.118-48.787-9.64-67.25 2.812-20.062 13.527-30.734 35.806-20.25 60.093l3.093 7.156-6.47 4.31c-21.435 14.36-32.997 30.393-37.124 48.126C16.34 195.39 19.65 215.64 31 238.5l2.47 5.03-3.25 4.564c-13.796 19.38-8.88 38.668 5.968 51.03 10.043 8.364 19.48 9.982 29.656 7.407 10.177-2.574 21.15-10.15 30.72-21.874l2.655-3.25 4.155-.187c27.728-1.2 49.69-11.635 63.97-27.72 14.28-16.085 21.22-37.98 17.718-63.906L184.03 182l7.25-2.5c8.066-2.768 14.73-8.15 18.814-15.53l5.28-9.564 8.626 6.72c6.39 4.976 22.988 8.397 31.375 5.968l10.28-2.97 1.564 10.595c4.3 29.362 24.393 52.534 50.06 60.155l8.25 2.438-1.75 8.437c-3.162 14.99 1.497 26.075 10.44 33.406 8.94 7.332 22.793 10.683 38.75 6.438l6.217-1.656 3.782 5.25c13.513 18.845 29.945 28.087 46.342 29.562 16.398 1.475 33.29-4.745 48.032-19.594 12.624-12.716 16.654-26.51 15.062-40.437-1.59-13.93-9.318-28.12-21.75-39.533l-8.5-7.812 9.406-6.688c7.878-5.6 10.74-15.92 8.907-25.5-1.833-9.58-7.527-16.677-16.345-17.78l-9.375-1.157 1.28-9.375c5.842-42.567-13.62-77.648-45.342-97.656-31.723-20.01-75.673-24.486-118.782-3.095l-6.72 3.344-4.717-5.876c-13.464-16.796-34.023-25.768-54.033-26.782-1.43-.072-2.857-.104-4.28-.093zm-1.22 160.31c-4.003 4.804-8.867 8.724-14.25 11.782 11.968 29.99 18.83 60.783 23.033 93.532-4.555 11.237-9.676 22.38-15.5 33.437l-.157.064c-8.54-19.537-18.073-38.957-31.188-55.75-.51.607-1.035 1.218-1.563 1.812-3.628 4.088-7.652 7.838-12 11.25 12.034 15.867 21.048 34.83 29.72 54.938 7.724 43.39 6.386 91.267-2.782 134.812-26.727 5.073-55.198 15.22-88.594 30.5h252.938c-32.428-15.282-60.268-25.46-86.688-30.53-13.95-24.116-21.036-50.13-23.25-76 9.692-45.174 28.504-71.692 57-99.282-19.276 7.68-37.422 17.31-52.687 31.937.702-3.41 1.488-6.766 2.31-10.092 9.476-24.123 23.87-45.82 42.94-65.407-5.784-2.705-11.25-5.994-16.283-9.874-12.71 13.552-23.555 28.128-32.312 43.78 7.156-19.187 12.88-38.422 18.063-57.592-5.443-6.556-10.03-13.933-13.563-21.938-4.167 16.03-8.512 31.946-13.5 47.72-4.637-23.334-11.12-46.08-20.375-68.47-.438-.204-.88-.41-1.313-.625z" fill="#fff" fill-opacity="1"></path></g>
<g class="" style="" transform="scale(.7 .7) translate(103 250)">
<path d="M361.094 20.845L367.686 49.78c17.986 12.885 30.035 27.273 40.375 47.814l3.282 6.53-4.28 5.94c-6.31 8.73-11.433 19.695-15.908 32.374 4.09 11.243 6.268 24.716 6.28 35.968l.033 14.188-14.033-2.28L354 185.5l-26.594 29.188-11.97 13.125-7.78-15.938-16.594-34.03c-10.396 12.86-19.287 23.182-30.593 30.936-15.34 10.52-34.276 14.385-61 12.564l-8.126-.563-2.5-7.75L177.78 179l-40.624 7.844-11.937 2.344-2.19-12s-2.258-12.142-6.31-25.532c-2.028-6.695-4.507-13.658-7.157-19.156-2.65-5.498-5.83-9.36-6.75-10.03l-6.47-4.72 1.876-7.813c4.586-19.172 17.198-36 37.218-50.374l-10.72-19.813C56.08 95.554 25.5 197.82 24.095 296.344c43.835 22.98 73.8 47.83 92.28 74.844 17.738 25.923 24.46 53.747 23.407 81.562 11.497 6.293 22.977 11.934 35.69 15.344 21.81 5.85 45.39 8.69 69.78 8.687 24.396-.003 49.41-2.844 72.375-8.717 18.33-4.69 35.105-11.838 50.656-20.47 1.95-55.263 35.304-110.082 118.814-151.468-1.55-97.394-34.025-206.568-109.125-262.25zM202.436 250.063c6.002 3.154 11.246 7.896 14.625 13.75 12.22 21.162-.962 51.59-29.218 67.906-28.256 16.313-61.282 12.128-73.5-9.033-6.974-12.077-5.45-27.048 2.156-40.812 12.835-.22 27.956-2.805 44.25-9.03 15.522-5.93 30.078-14.063 41.688-22.783zm106.22 0c11.61 8.72 26.164 16.852 41.687 22.78 16.294 6.227 31.415 8.812 44.25 9.032 7.607 13.764 9.13 28.735 2.156 40.813-12.218 21.16-45.213 25.346-73.47 9.03-28.255-16.314-41.436-46.743-29.217-67.906 3.38-5.853 8.592-10.595 14.593-13.75zm-53.063 75.625c18.53 36.128 33.233 72.246 40.53 108.375-27.02-8.244-54.042-9.343-81.062 0 9.866-36.13 21.727-72.247 40.532-108.375z" fill="#fff" fill-opacity="1"></path></g>

</svg>