<svg style="height: 512px; width: 512px;" xmlns="http://www.w3.org/2000/svg" viewBox="0 0 512 512"><path d="M0 0h512v512H0z" fill="#175748" fill-opacity="1"></path>
<g class="" style="" transform="translate(0,0)"><path d="M45.063 17.406v99.938l63.656 60.312 2.936 2.78v185.25c33.96 43.39 82.572 83.76 148.906 122.627 67.823-39.784 116.793-81.943 150.688-126.094V180.436l2.906-2.78 63.656-60.282v-99.97h-58.968V85.157h-66v-67.75h-58.97v67.75H228.47v-67.75h-59v67.75H104.06v-67.75h-59zm56.656 100.47h160.03v152.75H148.437v-108.97l-46.718-43.78zM262.312 271.81h112.156v73.813c-24.952 33.1-61.87 64.714-112.158 94.03V271.814z" fill="#fff" fill-opacity="1"></path></g>
<g class="" style="" transform="scale(.25 .25) translate(1000 1100)"><path d="M91.033 22.14v84.368l46.434 57.56v16.166l98.93 44.13 27.29-34.305 65.9 4.01v-30l46.433-57.562v-84.37h-48.916v39.796H297.33V22.14h-49.45v39.794h-29.24V22.14h-49.45v39.794h-29.243V22.14H91.033zm46.434 178.557v195.17h-29.88l-21.792 94.695h295.463l-21.79-94.695h-29.882V370.02l-38.72-24.07-23.712 29.292 28.432 25.737-12.543 13.854L241.5 377.23l33.37-41.222-91.65-56.973 33.288-43.082-79.04-35.256zm155.013 19.11l19.04 34.994 31.005-5.405-17.287-29.588H292.48zm66.682 10.088l17.293 74.527 55.553 2.068-13.442-57.967-59.404-18.628zm-135.47 27.328l-13.034 16.865 37.393 23.244 18.167-20.61-42.526-19.5zm73.115 13.056l-32.66 37.056 65.44 40.68V298.2l-32.78-27.92zm85.154 51.745l-5.16 29.584 33.49 18.158-.093-31.258-28.236-16.485zm79.91 6.928l-23.073 23.197 8.697 33.106 25.717-18.08-11.34-38.223zm-65.85 68.992l-10.97 36.977 24.88 17.49 8.414-32.025-22.323-22.442z" fill="#fff" fill-opacity="1"></path></g>
<g class="" style="" transform="scale(.3 .3) translate(820 390)"><path d="M256 23.03c-20.017 6.62-39.933 15.483-59.25 26.407l80.97 62.813-22.19 22.344 79.657 60.562-149.406-46.47 30.595-29.405-81.28-25.686c-20.255 18.034-38.886 38.7-55.032 61.812 21.454 57.967 32.843 94.84 32.843 132.094 0 36.768-11.184 73.342-32.094 130C131.52 455 182.796 476.72 234 482.03c17.09-74.624 14.146-149.25 1.03-223.874-31.348 3.477-62.62 13.448-94.28 30.03v-71.31c34.855-9.803 71.26-13.905 107.438-14.157 46.513-.325 92.643 5.714 134.593 14.155v71.313c-31.484-15.732-62.28-25.594-92.75-29.5-11.7 74.133-11.706 148.24 1.376 222.375 47.406-6.535 94.89-27.41 142.094-63.72-34.54-114.55-34.35-146.13.656-261.812C392.203 90.048 318.514 45.07 256 23.03z" fill="#175748" fill-opacity="1"></path></g>
<g class="" style="" transform="scale(.25 .25) translate(550 500)"><path d="M240.094 19.594c-56.69.364-110.882 29.054-151.594 72.344-53.428 56.81-81.948 137.907-61.03 210.093 16.33-8.797 32.757-15.987 48.936-21.374-6.327-123.16 89.247-210.922 200.03-210.344 4.255-13.365 10.268-27.308 18.127-41.874-16.323-5.43-32.736-8.36-48.97-8.782-1.833-.047-3.67-.074-5.5-.062zM271.28 88.97C173.724 90.715 91.367 166.07 94.907 275.28c10.986-2.73 21.788-4.582 32.28-5.436 14.59-1.187 28.69-.463 41.783 2.437L278.312 162.94c-5.26-12.1-8.473-25.024-9.344-38.75-.716-11.256.14-22.983 2.592-35.22-.093.002-.187 0-.28 0zm60.845 60.718l-16.875 16.875L345.75 197l16.813-16.813-30.438-30.5zm-37.125 23L175.625 292.063l44.625 44.562 119.313-119.313L295 172.688zm189.875 46.093c-14.466 7.808-28.318 13.807-41.594 18.064.75 111.013-87.243 206.8-210.686 200.28-5.39 16.104-12.552 32.462-21.313 48.72 72.19 20.922 153.313-7.6 210.126-61.03 57.045-53.65 88.516-130.72 63.47-206.033zm-136 15.657L240.687 342.625c3.23 13.563 4.086 28.245 2.844 43.47-.862 10.58-2.752 21.476-5.53 32.56 109.585 3.718 185.128-79.008 186.594-176.905-12.342 2.506-24.16 3.403-35.5 2.688-14.287-.9-27.698-4.347-40.22-10zM169.5 312.313L20.094 461.72V494H48.75l151.188-151.188-30.438-30.5z" fill="#fff" fill-opacity="1"></path></g>
<g class="" style="" transform="scale(.25 .25) translate(550 1150)"><path d="M92.406 13.02l-.164 156.353c3.064.507 6.208 1.38 9.39 2.627 36.496 14.306 74.214 22.435 111.864 25.473l43.402-60.416 42.317 58.906c36.808-4.127 72.566-12.502 105.967-24.09 3.754-1.302 7.368-2.18 10.818-2.6l1.523-156.252-75.82 95.552-34.084-95.55-53.724 103.74-53.722-103.74-35.442 95.55-72.32-95.55h-.006zm164.492 156.07l-28.636 39.86 28.634 39.86 28.637-39.86-28.635-39.86zM86.762 187.55c-2.173-.08-3.84.274-5.012.762-2.345.977-3.173 2.19-3.496 4.196-.645 4.01 2.825 14.35 23.03 21.36 41.7 14.468 84.262 23.748 126.778 26.833l-17.75-24.704c-38.773-3.285-77.69-11.775-115.5-26.596-3.197-1.253-5.877-1.77-8.05-1.85zm333.275.19c-2.156.052-5.048.512-8.728 1.79-33.582 11.65-69.487 20.215-106.523 24.646l-19.264 26.818c40.427-2.602 80.433-11.287 119.22-26.96 15.913-6.43 21.46-17.81 21.36-22.362-.052-2.276-.278-2.566-1.753-3.274-.738-.353-2.157-.71-4.313-.658zm-18.117 47.438c-42.5 15.87-86.26 23.856-130.262 25.117l-14.76 20.547-14.878-20.71c-44.985-1.745-89.98-10.23-133.905-24.306-12.78 28.51-18.94 61.14-19.603 93.44 37.52 17.497 62.135 39.817 75.556 64.63C177 417.8 179.282 443.62 174.184 467.98c7.72 5.007 16.126 9.144 24.98 12.432l5.557-47.89 18.563 2.154-5.935 51.156c9.57 2.21 19.443 3.53 29.377 3.982v-54.67h18.69v54.49c9.903-.638 19.705-2.128 29.155-4.484l-5.857-50.474 18.564-2.155 5.436 46.852c8.747-3.422 17.004-7.643 24.506-12.69-5.758-24.413-3.77-49.666 9.01-72.988 13.28-24.234 37.718-46 74.803-64.29-.62-33.526-6.687-66.122-19.113-94.23zm-266.733 47.006c34.602.23 68.407 12.236 101.358 36.867-46.604 33.147-129.794 34.372-108.29-36.755 2.315-.09 4.626-.127 6.933-.11zm242.825 0c2.307-.016 4.617.022 6.93.11 21.506 71.128-61.684 69.903-108.288 36.757 32.95-24.63 66.756-36.637 101.358-36.866zM255.164 332.14c11.77 21.725 19.193 43.452 25.367 65.178h-50.737c4.57-21.726 13.77-43.45 25.37-65.18z" fill="#175748" fill-opacity="1"></path></g>
</svg>